<!-- free use https://icon-sets.iconify.design/iconoir/gym/ -->
<svg xmlns="http://www.w3.org/2000/svg" 
viewBox="0 0 24 24"
>
<g
fill="none"
stroke="currentColor" 
stroke-linecap="round" 
stroke-linejoin="round" 
stroke-width="1.5">
<path d="M7.4 7H4.6a.6.6 0 0 0-.6.6v8.8a.6.6 0 0 0 .6.6h2.8a.6.6 0 0 0 .6-.6V7.6a.6.6 0 0 0-.6-.6m12 0h-2.8a.6.6 0 0 0-.6.6v8.8a.6.6 0 0 0 .6.6h2.8a.6.6 0 0 0 .6-.6V7.6a.6.6 0 0 0-.6-.6"/><path d="M1 14.4V9.6a.6.6 0 0 1 .6-.6h1.8a.6.6 0 0 1 .6.6v4.8a.6.6 0 0 1-.6.6H1.6a.6.6 0 0 1-.6-.6m22 0V9.6a.6.6 0 0 0-.6-.6h-1.8a.6.6 0 0 0-.6.6v4.8a.6.6 0 0 0 .6.6h1.8a.6.6 0 0 0 .6-.6M8 12h8"/></g></svg>